Simulation
nRows=44
nColumns=15
endheader
time  TH_x TH_y TH_z SC_y  SC_z  SC_x  AC_y  AC_z  AC_x  GH_y  GH_z  GH_yy  EL_x  PS_y
5.745  0.000000  0.000000  0.000000  -56.15628372962759  15.529204909805992  29.084895043958877  55.07323947826581  13.777207277737398  18.010809192820474  24.51609940472799  41.24108681096713  -36.086944256161935  18.564892640190546  120.000000
5.80245  0.000000  0.000000  0.000000  -54.999550246834936  15.2686719327391  26.366802463344513  54.87969395062816  13.55773707931503  16.778837688346787  25.82252467176937  40.441995352627885  -37.42610433210163  18.85866337394708  120.000000
5.8599  0.000000  0.000000  0.000000  -53.666310599391764  14.824509504411227  22.911491391461695  54.63220565495518  13.24676900316477  15.494607883172293  27.30978933299916  39.472877529915245  -38.593587046267864  19.254709913168874  120.000000
5.91735  0.000000  0.000000  0.000000  -52.25004238229338  14.097804856711909  18.860159746711243  54.30624778128297  12.814983133622011  14.246399384692742  28.835344411218824  38.367981610729494  -39.36193597897077  19.662827599745455  120.000000
5.9748  0.000000  0.000000  0.000000  -50.85225480162941  13.023762995789319  14.406152821129082  53.865177317639635  12.269059149773762  13.110449772902834  30.242505474481618  37.138340765425056  -39.52626756590685  19.972216357843543  120.000000
6.03225  0.000000  0.000000  0.000000  -49.563329085676806  11.602702780746466  9.771210844459638  53.2787349392503  11.64973153478079  12.139745162256768  31.389117010659643  35.78468763022217  -38.95992929078512  20.086978293602666  120.000000
6.089700000000001  0.000000  0.000000  0.000000  -48.43663192113817  9.903823851875623  5.174025871925349  52.53897159635609  11.021760927638015  11.359360512709804  32.1769544183426  34.312714449367675  -37.652968765928236  19.95575970030774  120.000000
6.14715  0.000000  0.000000  0.000000  -47.47104015571346  8.04051356362187  0.802671359481397  51.66890248926097  10.459936351482106  10.768705192297016  32.57436066856087  32.738491434977306  -35.72292438729389  19.579530265337024  120.000000
6.2046  0.000000  0.000000  0.000000  -46.609933697542054  6.132072488633295  -3.198106979386596  50.72579764868833  10.038369093472868  10.347912674683716  32.62879547163654  31.08000161341077  -33.397151903133505  18.997812825737782  120.000000
6.26205  0.000000  0.000000  0.000000  -45.760013042200285  4.271306561197255  -6.724830664952483  49.78767140673655  9.820453354990503  10.072235512030932  32.45535947629006  29.345687298211516  -30.962786300426004  18.269987562925383  120.000000
6.3195  0.000000  0.000000  0.000000  -44.8334472830628  2.5235888384244776  -9.712324153299484  48.933156754698096  9.847188725698379  9.919016326144122  32.19672030094783  27.54189077818165  -28.68847615980558  17.46849313680299  120.000000
6.37695  0.000000  0.000000  0.000000  -43.78305738831478  0.9418487465976705  -12.140539940656742  48.22657720034487  10.121989818690214  9.86396042767651  31.976316856466184  25.69762165779934  -26.752996489257015  16.67559239392014  120.000000
6.4344  0.000000  0.000000  0.000000  -42.626823781615265  -0.44128688084921275  -14.037994580999051  47.70245994322178  10.596528605178383  9.885966978196267  31.868720766564326  23.87702794810642  -25.212446395475084  15.977469982824667  120.000000
6.49185  0.000000  0.000000  0.000000  -41.43517459856947  -1.6167370484661152  -15.474956041027484  47.36981629643108  11.183319558860662  9.965652423209008  31.8947640321678  22.16745146363941  -24.016149734290284  15.452076622524439  120.000000
6.549300000000001  0.000000  0.000000  0.000000  -40.28142881561839  -2.590281440996429  -16.544188491559222  47.22418917965359  11.792281139493493  10.074928225996059  32.023701795418255  20.64485556367779  -23.047036918630663  15.150419942667375  120.000000
6.60675  0.000000  0.000000  0.000000  -39.22745552650488  -3.3907614248687854  -17.334382861062426  47.232734651303666  12.354242091006736  10.189724510213544  32.17274598679479  19.338128997083146  -22.155040532771714  15.085168994292122  120.000000
6.6642  0.000000  0.000000  0.000000  -38.31515639279823  -4.054907664860975  -17.917509161223787  47.33787093551453  12.829000882795432  10.298178393474918  32.24070070377154  18.23061474603347  -21.206372995363285  15.235991843597928  120.000000
6.72165  0.000000  0.000000  0.000000  -37.56651074697372  -4.601631990781991  -18.34901295786997  47.48522424731171  13.204564718676165  10.393529896364917  32.157953096586105  17.29023705097848  -20.128410708232067  15.563513242738825  120.000000
6.7791  0.000000  0.000000  0.000000  -36.99099302963882  -5.034326194437229  -18.67065680347397  47.63189010847541  13.485538768851546  10.474994826142723  31.900189533394283  16.484780834752215  -18.90876164237314  16.012228900109303  120.000000
6.83655  0.000000  0.000000  0.000000  -36.581175616421035  -5.354257984674238  -18.913317100900553  47.750199633280715  13.683801231856787  10.546452902138324  31.479276043227383  15.782573727778226  -17.57176939056709  16.507705847647312  120.000000
6.894  0.000000  0.000000  0.000000  -36.3110863208132  -5.5690777949451435  -19.09952138919857  47.82927769198825  13.814935139392912  10.612178599116465  30.92774697821492  15.15252259368648  -16.157554404122482  16.963047329806134  120.000000
6.95145  0.000000  0.000000  0.000000  -36.141873216739654  -5.69363190318013  -19.24450634996949  47.87020257530869  13.896295677528792  10.674543521067836  30.281909242937427  14.566946340261  -14.7087125602078  17.297438894882863  120.000000
7.008900000000001  0.000000  0.000000  0.000000  -36.0363716290168  -5.7488231377046946  -19.35776529371609  47.87908009804268  13.946097234739868  10.733623848770737  29.57589333530805  14.007743232179191  -13.271076671547451  17.46386811336528  120.000000
7.06635  0.000000  0.000000  0.000000  -35.97015264006424  -5.7575451143261365  -19.444987550290442  47.86244320438953  13.981148187651712  10.785774999304278  28.84236140224526  13.469895103226776  -11.898442742008953  17.47081889856934  120.000000
7.1238  0.000000  0.000000  0.000000  -35.935545155522384  -5.7395976885547055  -19.508704124192803  47.825496102720265  14.015339692528672  10.823870596860036  28.118818975393484  12.960542092438102  -10.656372741678211  17.379871224679903  120.000000
7.18125  0.000000  0.000000  0.000000  -35.9360640465423  -5.709660033398626  -19.54970493628198  47.77235005627589  14.059137450900943  10.840096832212323  27.447252340068633  12.493672058392045  -9.61348037209386  17.27729999065294  120.000000
7.2387  0.000000  0.000000  0.000000  -35.977067764912  -5.677381523182146  -19.56754333837688  47.706915908558436  14.118753158367584  10.828356101535073  26.864334138644423  12.082562931620107  -8.821133703736567  17.238164719010644  120.000000
7.29615  0.000000  0.000000  0.000000  -36.057170862501  -5.648524766713669  -19.560697750693308  47.63374515642423  14.196042955952839  10.786477118428946  26.385089166233758  11.734022815217301  -8.289295202654483  17.299248670245753  120.000000
7.3536  0.000000  0.000000  0.000000  -36.165127929505275  -5.626174001906124  -19.527781258757837  47.55830486784731  14.289615693009798  10.716419765741096  25.993845375744876  11.446490106351987  -7.977044809743482  17.45389833247856  120.000000
7.41105  0.000000  0.000000  0.000000  -36.283372908225786  -5.611241728032789  -19.469230095448516  47.485959564530916  14.39615096487872  10.623172864962303  25.647909882827467  11.211483556048945  -7.803627516132378  17.668275890358224  120.000000
7.468500000000001  0.000000  0.000000  0.000000  -36.394911053624  -5.6032781580120234  -19.388266393689328  47.420253186120384  14.511677661258  10.513040906263845  25.295265748394204  11.016869812173516  -7.6771660495045975  17.903989707377267  120.000000
7.52595  0.000000  0.000000  0.000000  -36.48927472437117  -5.6009251712370585  -19.29085441579068  47.361825060737665  14.63238001800263  10.392435364111456  24.89551399012349  10.850115920109763  -7.525050994965036  18.134622022610337  120.000000
7.5834  0.000000  0.000000  0.000000  -36.56494239733185  -5.602439910913346  -19.184746473409245  47.307976188561206  14.7553975759383  10.267238508995769  24.432868553273035  10.700227379605332  -7.311333860950284  18.351327582682245  120.000000
7.64085  0.000000  0.000000  0.000000  -36.62754479639566  -5.606193482548398  -19.078042938492473  47.254214439575264  14.879612953765482  10.142077931290448  23.916093153253026  10.55858104148248  -7.035057822442245  18.557862127424393  120.000000
7.6983  0.000000  0.000000  0.000000  -36.686173846853386  -5.610711584285439  -18.977666998976684  47.195737163589705  15.005917394888806  10.01977624655943  23.369798897781582  10.418655159809068  -6.717071311747816  18.76185386250513  120.000000
7.75575  0.000000  0.000000  0.000000  -36.750765446953345  -5.614731797954256  -18.88824931846411  47.12855972702579  15.136684643803603  9.901314548031545  22.824069123766527  10.27588836499598  -6.385302930059987  18.96790147434156  120.000000
7.8132  0.000000  0.000000  0.000000  -36.830600421062066  -5.617183008754137  -18.811791246519817  47.050122837513925  15.274672873361256  9.786176971323512  22.311215683362573  10.127478333441697  -6.068714058472268  19.17499986556355  120.000000
7.87065  0.000000  0.000000  0.000000  -36.93390545916983  -5.617202403135372  -18.748049000909862  46.96011810570678  15.421574890197286  9.673110709203854  21.869928502482534  9.972303676885751  -5.7998701540322894  19.37843038609941  120.000000
7.928100000000001  0.000000  0.000000  0.000000  -37.06733494914443  -5.614367711418687  -18.695258842817033  46.8604274291755  15.576845228152738  9.561225124771289  21.552583675946174  9.810218905958449  -5.621555735646227  19.57457079218746  120.000000
7.98555  0.000000  0.000000  0.000000  -37.2354821071508  -5.608527753953512  -18.650890909251686  46.75450690221898  15.737262540943894  9.450974956873607  21.426074018042524  9.641403414066218  -5.587122735602591  19.766145106658065  120.000000
8.043  0.000000  0.000000  0.000000  -37.440323362241806  -5.598934608176991  -18.612516094068315  46.64504691060397  15.897633050789986  9.344082128767862  21.559517888714012  9.465749208074115  -5.749151328249568  19.964792152189215  120.000000
8.10045  0.000000  0.000000  0.000000  -37.68184951671842  -5.582524753079896  -18.578020531948184  46.52860125078081  16.0520652208654  9.24354046828954  21.99092948164313  9.282889377026185  -6.129612887941919  20.186908496431485  120.000000
8.1579  0.000000  0.000000  0.000000  -37.96038763233764  -5.550707351512603  -18.546304265773518  46.39068246144366  16.19631104963455  9.1512558382611  22.68982341003655  9.093319967710112  -6.689039149273686  20.443351801780974  120.000000
8.21535  0.000000  0.000000  0.000000  -38.27662829646418  -5.487848041062044  -18.51859217389904  46.20613179486567  16.32863981178081  9.064212794401872  23.540343812178904  8.899677227560948  -7.317285118020468  20.72517260227149  120.000000
